<?xml version="1.0" encoding="UTF-8"?>
<svg enable-background="new 0 0 512.002 512.002" version="1.1" viewBox="0 0 512.002 512.002" xml:space="preserve" xmlns="http://www.w3.org/2000/svg">
<g fill="#96BE4B">
	<path d="m89.087 339.27l20.911 75.297c1.187 4.351 1.47 8.898 0.832 13.363l-7.291 51.039-16.94 5.647c-4.932 1.644-8.802 5.514-10.446 10.446l-2.023 6.07c-1.782 5.347 2.198 10.87 7.834 10.87h60.112l11.699-167.91-64.688-4.818z"/>
	<path d="m280.06 371.18l14.106 74.76-8.258 33.032-16.94 5.647c-4.932 1.644-8.802 5.514-10.446 10.446l-2.023 6.071c-1.782 5.347 2.198 10.87 7.834 10.87h33.734c7.448 0 13.974-4.985 15.934-12.17l17.381-63.73c2.704-9.914 4.074-20.145 4.074-30.422v-39.684c0-14.949-11.766-27.249-26.7-27.913-17.997-0.8-32.036 15.39-28.696 33.093z"/>
</g>
<path d="m149.64 216.75c-9.815-0.103-18.729-5.706-22.668-14.697-8.094-18.477-17.54-55.738-6.918-119.47 12.358-74.14-64.386-82.58-64.386-82.58-3.967 0-7.772 1.576-10.577 4.381l-8.386 8.386c-1.403 1.403-3.305 2.191-5.289 2.191h-11.86c-4.131 0-7.479 3.349-7.479 7.479v7.924c0 8.169 6.5 14.837 14.668 14.956 4.059 0.059 9.091 0.1 15.249 0.1 23.88 0 47.435 11.166 39.887 48.07-12.36 60.423-27.372 108.32-22.385 169.4 4.212 51.6 27.153 92.821 72.148 115.54 77.873 43.428 239.24-0.983 239.24-0.983 45.429-15.115 81.6-8.061 93.257 12.756 12.043 21.505 5.071 45.781-39.914 77.075-7.914 5.505-1.032 12.731 4.817 10.323 14.691-6.049 70.882-39.916 70.882-89.462 0-72.554-158.37-169.37-350.29-171.38z" fill="#BEE86E"/>
<path d="m26.745 45.318c4.059 0.059 9.091 0.1 15.249 0.1 23.88 0 47.435 11.166 39.887 48.07-12.36 60.422-27.372 108.32-22.385 169.39 4.212 51.6 27.153 92.821 72.148 115.54 77.873 43.428 239.24-0.983 239.24-0.983 45.429-15.115 81.6-8.061 93.257 12.756 12.043 21.505 5.071 45.781-39.914 77.075-5.424 3.774-3.852 8.284-0.471 10.018 0.432-0.323 0.878-0.605 1.332-0.899 111.48-72.258 46.108-150.37-59.699-115.78-44.06 14.4-152.43 29.591-218.5-6.882-67.348-37.182-68.817-128.69-62.624-169.98 3.744-24.959 25.807-101.85 6.882-133.85-13.681-23.132-57.807-19.532-79.076-19.532 0 8.17 6.5 14.837 14.669 14.957z" fill="#D4F582"/>
<g fill="#AFD755">
	<path d="m154.49 279.23c-24.277-2.244-43.291 20.501-36.778 43.996l25.32 91.344c1.187 4.351 1.47 8.898 0.832 13.362l-7.291 51.039-16.94 5.647c-4.932 1.644-8.802 5.514-10.446 10.446l-2.024 6.071c-1.782 5.347 2.198 10.87 7.834 10.87h33.734c7.448 0 13.974-4.985 15.934-12.17l17.381-63.731c2.704-9.914 4.074-20.144 4.074-30.42v-91.762c1e-3 -18.001-13.708-33.036-31.63-34.692z"/>
	<path d="m304.48 334.78l22.027 111.16-8.258 33.032-16.94 5.647c-4.932 1.644-8.802 5.514-10.446 10.446l-2.023 6.071c-1.782 5.347 2.198 10.87 7.834 10.87h33.734c7.448 0 13.974-4.985 15.934-12.17l17.381-63.73c2.704-9.914 4.074-20.145 4.074-30.422v-77.113c0-17.653-14.31-31.963-31.963-31.963-20.148-1e-3 -35.27 18.412-31.354 38.175z"/>
</g>
<circle cx="50.979" cy="16.43" r="4.559" fill="#4B3F4E"/>
</svg>
