<?xml version="1.0" encoding="iso-8859-1"?>
<!-- Generator: Adobe Illustrator 19.0.0, SVG Export Plug-In . SVG Version: 6.00 Build 0)  -->
<svg version="1.1" id="Capa_1" xmlns="http://www.w3.org/2000/svg" xmlns:xlink="http://www.w3.org/1999/xlink" x="0px" y="0px"
	 viewBox="0 0 512.002 512.002" style="enable-background:new 0 0 512.002 512.002;" xml:space="preserve">
<g>
	<path style="fill:#96BE4B;" d="M89.087,339.269l20.911,75.297c1.187,4.351,1.47,8.898,0.832,13.363l-7.291,51.039l-16.94,5.647
		c-4.932,1.644-8.802,5.514-10.446,10.446l-2.023,6.07c-1.782,5.347,2.198,10.87,7.834,10.87h60.112l11.699-167.914L89.087,339.269z
		"/>
	<path style="fill:#96BE4B;" d="M280.056,371.175l14.106,74.76l-8.258,33.032l-16.94,5.647c-4.932,1.644-8.802,5.514-10.446,10.446
		l-2.023,6.071c-1.782,5.347,2.198,10.87,7.834,10.87h33.734c7.448,0,13.974-4.985,15.934-12.17l17.381-63.73
		c2.704-9.914,4.074-20.145,4.074-30.422v-39.684c0-14.949-11.766-27.249-26.7-27.913l0,0
		C290.755,337.282,276.716,353.472,280.056,371.175z"/>
</g>
<path style="fill:#BEE86E;" d="M149.64,216.75c-9.815-0.103-18.729-5.706-22.668-14.697c-8.094-18.477-17.54-55.738-6.918-119.473
	C132.412,8.44,55.668,0,55.668,0c-3.967,0-7.772,1.576-10.577,4.381l-8.386,8.386c-1.403,1.403-3.305,2.191-5.289,2.191h-11.86
	c-4.131,0-7.479,3.349-7.479,7.479v7.924c0,8.169,6.5,14.837,14.668,14.956c4.059,0.059,9.091,0.1,15.249,0.1
	c23.88,0,47.435,11.166,39.887,48.07c-12.36,60.423-27.372,108.316-22.385,169.395c4.212,51.6,27.153,92.821,72.148,115.539
	c77.873,43.428,239.24-0.983,239.24-0.983c45.429-15.115,81.6-8.061,93.257,12.756c12.043,21.505,5.071,45.781-39.914,77.075
	c-7.914,5.505-1.032,12.731,4.817,10.323c14.691-6.049,70.882-39.916,70.882-89.462C499.926,315.576,341.553,218.759,149.64,216.75z
	"/>
<path style="fill:#D4F582;" d="M26.745,45.318c4.059,0.059,9.091,0.1,15.249,0.1c23.88,0,47.435,11.166,39.887,48.07
	c-12.36,60.422-27.372,108.315-22.385,169.394c4.212,51.6,27.153,92.821,72.148,115.539c77.873,43.428,239.24-0.983,239.24-0.983
	c45.429-15.115,81.6-8.061,93.257,12.756c12.043,21.505,5.071,45.781-39.914,77.075c-5.424,3.774-3.852,8.284-0.471,10.018
	c0.432-0.323,0.878-0.605,1.332-0.899c111.484-72.258,46.108-150.366-59.699-115.785c-44.06,14.4-152.43,29.591-218.495-6.882
	C79.546,316.539,78.077,225.033,84.27,183.742c3.744-24.959,25.807-101.849,6.882-133.849
	C77.471,26.761,33.345,30.361,12.076,30.361C12.076,38.531,18.576,45.198,26.745,45.318z"/>
<g>
	<path style="fill:#AFD755;" d="M154.488,279.227c-24.277-2.244-43.291,20.501-36.778,43.996l25.32,91.344
		c1.187,4.351,1.47,8.898,0.832,13.362l-7.291,51.039l-16.94,5.647c-4.932,1.644-8.802,5.514-10.446,10.446l-2.024,6.071
		c-1.782,5.347,2.198,10.87,7.834,10.87h33.734c7.448,0,13.974-4.985,15.934-12.17l17.381-63.731
		c2.704-9.914,4.074-20.144,4.074-30.42v-91.762C186.119,295.918,172.41,280.883,154.488,279.227L154.488,279.227z"/>
	<path style="fill:#AFD755;" d="M304.48,334.778l22.027,111.157l-8.258,33.032l-16.94,5.647c-4.932,1.644-8.802,5.514-10.446,10.446
		l-2.023,6.071c-1.782,5.347,2.198,10.87,7.834,10.87h33.734c7.448,0,13.974-4.985,15.934-12.17l17.381-63.73
		c2.704-9.914,4.074-20.145,4.074-30.422v-77.113c0-17.653-14.31-31.963-31.963-31.963l0,0
		C315.686,296.602,300.564,315.015,304.48,334.778z"/>
</g>
<circle style="fill:#4B3F4E;" cx="50.979" cy="16.43" r="4.559"/>
<g>
</g>
<g>
</g>
<g>
</g>
<g>
</g>
<g>
</g>
<g>
</g>
<g>
</g>
<g>
</g>
<g>
</g>
<g>
</g>
<g>
</g>
<g>
</g>
<g>
</g>
<g>
</g>
<g>
</g>
</svg>
